# xmcd CD database file
#
# Track frame offsets:
#	150
#	21437
#	33380
#	47725
#	53914
#	58765
#	89627
#	97108
#	116569
#	139750
#	157687
#	160217
#	184226
#	192534
#	218591
#	251850
#
# Disc length: 3680 seconds
#
# Revision: 0
# Processed by: cddbd v1.5.1PL2 Copyright (c) Steve Scherf et al.
# Submitted via: CDex 1.51
#
DISCID=e90e5e10
DTITLE=Various Artist - Back Against The Wall (Disc2)
DYEAR=2005
DGENRE=Rock
TTITLE0=Hey You
TTITLE1=Is There Anybody Out There?
TTITLE2=Nobody Home
TTITLE3=Vera
TTITLE4=Bring The Boys Back Home
TTITLE5=Comfortably Numb
TTITLE6=The Show Must Go On
TTITLE7=In The Flesh
TTITLE8=Run Like Hell
TTITLE9=Waiting For The Worms
TTITLE10=Stop
TTITLE11=The Trial
TTITLE12=Outside The Wall
TTITLE13=Hey You (From「The Other Side of Pink」)
TTITLE14=Another Brick in the Wall Part 2 (From「The Other Side of Pink」)
TTITLE15=Another Brick in the Wall Part 2: House Remix by DJ Rat
EXTD=YEAR: 2005
EXTT0=
EXTT1=
EXTT2=
EXTT3=
EXTT4=
EXTT5=
EXTT6=
EXTT7=
EXTT8=
EXTT9=
EXTT10=
EXTT11=
EXTT12=
EXTT13=
EXTT14=
EXTT15=
PLAYORDER=
